<svg t="1614092508811" class="icon" viewBox="0 0 1024 1024" version="1.1" xmlns="http://www.w3.org/2000/svg" p-id="5781" width="128" height="128"><path d="M341.333333 0h113.777778v113.777778H341.333333V0z m227.555556 0h113.777778v113.777778H568.888889V0zM341.333333 227.555556h113.777778v113.777777H341.333333V227.555556z m227.555556 0h113.777778v113.777777H568.888889V227.555556zM341.333333 455.111111h113.777778v113.777778H341.333333V455.111111z m227.555556 0h113.777778v113.777778H568.888889V455.111111z m-227.555556 227.555556h113.777778v113.777777H341.333333v-113.777777z m227.555556 0h113.777778v113.777777H568.888889v-113.777777z m-227.555556 227.555555h113.777778v113.777778H341.333333v-113.777778z m227.555556 0h113.777778v113.777778H568.888889v-113.777778z" p-id="5782"></path></svg>